<?xml version="1.0" encoding="UTF-8" standalone="no"?>
<!-- Created with Inkscape (http://www.inkscape.org/) -->

<svg
   width="512"
   height="512"
   viewBox="0 0 135.46666 135.46667"
   version="1.1"
   id="svg5"
   inkscape:version="1.1.1 (c3084ef, 2021-09-22)"
   sodipodi:docname="df_logo.svg"
   xmlns:inkscape="http://www.inkscape.org/namespaces/inkscape"
   xmlns:sodipodi="http://sodipodi.sourceforge.net/DTD/sodipodi-0.dtd"
   xmlns="http://www.w3.org/2000/svg"
   xmlns:svg="http://www.w3.org/2000/svg">
  <sodipodi:namedview
     id="namedview7"
     pagecolor="#ffffff"
     bordercolor="#666666"
     borderopacity="1.0"
     inkscape:pageshadow="2"
     inkscape:pageopacity="0.0"
     inkscape:pagecheckerboard="0"
     inkscape:document-units="mm"
     showgrid="false"
     units="px"
     width="512px"
     inkscape:zoom="0.83972969"
     inkscape:cx="300.692"
     inkscape:cy="279.25653"
     inkscape:window-width="1312"
     inkscape:window-height="847"
     inkscape:window-x="0"
     inkscape:window-y="25"
     inkscape:window-maximized="0"
     inkscape:current-layer="g395" />
  <defs
     id="defs2" />
  <g
     inkscape:label="Layer 1"
     inkscape:groupmode="layer"
     id="layer1">
    <g
       id="g131"
       transform="matrix(0.11716734,0,0,0.12708198,38.726198,46.782663)">
      <path
         d="m 454.962,110.751 c -0.018,-0.185 -0.05,-0.365 -0.081,-0.545 -0.011,-0.06 -0.016,-0.122 -0.028,-0.182 -0.043,-0.215 -0.098,-0.425 -0.159,-0.632 -0.007,-0.025 -0.012,-0.052 -0.02,-0.077 -0.065,-0.213 -0.141,-0.421 -0.224,-0.625 -0.008,-0.021 -0.015,-0.043 -0.023,-0.064 -0.081,-0.195 -0.173,-0.384 -0.269,-0.57 -0.016,-0.031 -0.029,-0.063 -0.045,-0.094 -0.093,-0.173 -0.196,-0.339 -0.301,-0.504 -0.027,-0.042 -0.05,-0.086 -0.077,-0.127 -0.103,-0.154 -0.216,-0.3 -0.33,-0.446 -0.037,-0.048 -0.07,-0.098 -0.109,-0.145 -0.142,-0.173 -0.294,-0.338 -0.45,-0.498 -0.015,-0.015 -0.027,-0.031 -0.042,-0.046 l -104,-104 C 348.786,2.178 348.766,2.163 348.747,2.145 348.591,1.992 348.43,1.844 348.261,1.705 348.206,1.66 348.148,1.622 348.092,1.579 347.954,1.472 347.817,1.365 347.672,1.268 347.621,1.234 347.567,1.206 347.516,1.173 347.36,1.074 347.204,0.976 347.041,0.889 347.005,0.87 346.967,0.854 346.93,0.836 346.749,0.743 346.565,0.653 346.376,0.574 346.352,0.564 346.327,0.557 346.302,0.547 346.1,0.466 345.896,0.39 345.686,0.326 345.659,0.318 345.632,0.313 345.605,0.305 345.399,0.245 345.19,0.19 344.977,0.147 344.914,0.134 344.849,0.129 344.785,0.118 344.608,0.087 344.431,0.056 344.249,0.038 344.001,0.013 343.751,0 343.5,0 H 95.5 C 73.72,0 56,17.72 56,39.5 v 432 c 0,21.78 17.72,39.5 39.5,39.5 h 320 c 21.78,0 39.5,-17.72 39.5,-39.5 v -360 c 0,-0.251 -0.013,-0.501 -0.038,-0.749 z M 351,25.606 429.394,104 H 375.5 C 361.991,104 351,93.01 351,79.5 Z M 415.5,496 H 95.5 C 81.991,496 71,485.01 71,471.5 V 39.5 C 71,25.99 81.991,15 95.5,15 H 336 v 64.5 c 0,21.78 17.72,39.5 39.5,39.5 H 440 v 352.5 c 0,13.51 -10.991,24.5 -24.5,24.5 z"
         id="path78" />
      <g
         id="g80">
</g>
      <g
         id="g82">
</g>
      <g
         id="g84">
</g>
      <g
         id="g86">
</g>
      <g
         id="g88">
</g>
      <g
         id="g90">
</g>
      <g
         id="g92">
</g>
      <g
         id="g94">
</g>
      <g
         id="g96">
</g>
      <g
         id="g98">
</g>
      <g
         id="g100">
</g>
      <g
         id="g102">
</g>
      <g
         id="g104">
</g>
      <g
         id="g106">
</g>
      <g
         id="g108">
</g>
    </g>
    <g
       id="g395"
       transform="matrix(0.27158454,0,0,0.25654451,2.2987303,6.9948832)">
      <g
         id="g341"
         style="stroke-width:1.00037;stroke-miterlimit:4;stroke-dasharray:none"
         transform="translate(9.742209)">
	<path
   d="m 235.169,470.34 c 99.262,0 180.016,-80.756 180.016,-180.018 0,-41.055 -28.979,-101.928 -86.129,-180.933 C 287.262,51.617 244.866,4.585 244.442,4.117 242.072,1.496 238.705,0 235.17,0 c -3.534,0 -6.903,1.496 -9.273,4.117 -0.423,0.469 -42.819,47.5 -84.613,105.272 -57.152,79.004 -86.13,139.878 -86.13,180.933 -0.002,99.262 80.753,180.018 180.015,180.018 z M 161.41,124.223 c 29.423,-40.688 59.156,-75.953 73.761,-92.8 14.578,16.813 44.227,51.977 73.628,92.621 53.244,73.6 81.387,131.099 81.387,166.278 0,85.477 -69.541,155.018 -155.017,155.018 -85.477,0 -155.017,-69.541 -155.017,-155.018 0,-35.149 28.099,-92.586 81.258,-166.099 z"
   id="path339"
   style="stroke-width:1.00037;stroke-miterlimit:4;stroke-dasharray:none" />

</g>
      <g
         id="g343">
</g>
      <g
         id="g345">
</g>
      <g
         id="g347">
</g>
      <g
         id="g349">
</g>
      <g
         id="g351">
</g>
      <g
         id="g353">
</g>
      <g
         id="g355">
</g>
      <g
         id="g357">
</g>
      <g
         id="g359">
</g>
      <g
         id="g361">
</g>
      <g
         id="g363">
</g>
      <g
         id="g365">
</g>
      <g
         id="g367">
</g>
      <g
         id="g369">
</g>
      <g
         id="g371">
</g>
    </g>
  </g>
</svg>
